<mxfile host="app.diagrams.net" agent="Mozilla/5.0 (Macintosh; Intel Mac OS X 10_15_7) AppleWebKit/537.36 (KHTML, like Gecko) Chrome/135.0.0.0 Safari/537.36 Edg/135.0.0.0" version="26.2.12">
  <diagram name="Page-1" id="6xCQZnicE1tx1k-z4Tm0">
    <mxGraphModel dx="989" dy="708" grid="1" gridSize="10" guides="1" tooltips="1" connect="1" arrows="1" fold="1" page="1" pageScale="1" pageWidth="850" pageHeight="1100" math="0" shadow="0">
      <root>
        <mxCell id="0" />
        <mxCell id="1" parent="0" />
        <object placeholders="1" c4Name="Agent / Copilot Boundary" label="&lt;font style=&quot;font-size: 14px&quot;&gt;&lt;b&gt;&lt;div style=&quot;text-align: right&quot;&gt;%c4Name%&lt;/div&gt;&lt;/b&gt;&lt;/font&gt;" id="cu5lOc34p12UprIcYlYF-4">
          <mxCell style="rounded=1;fontSize=11;whiteSpace=wrap;html=1;dashed=1;arcSize=20;fillColor=none;strokeColor=#666666;fontColor=#333333;labelBackgroundColor=none;align=left;verticalAlign=bottom;labelBorderColor=none;spacingTop=0;spacing=10;dashPattern=8 4;metaEdit=1;rotatable=0;perimeter=rectanglePerimeter;noLabel=0;labelPadding=0;allowArrows=0;connectable=0;expand=0;recursiveResize=0;editable=1;pointerEvents=0;absoluteArcSize=1;points=[[0.25,0,0],[0.5,0,0],[0.75,0,0],[1,0.25,0],[1,0.5,0],[1,0.75,0],[0.75,1,0],[0.5,1,0],[0.25,1,0],[0,0.75,0],[0,0.5,0],[0,0.25,0]];" vertex="1" parent="1">
            <mxGeometry x="40" y="80" width="260" height="520" as="geometry" />
          </mxCell>
        </object>
        <mxCell id="cu5lOc34p12UprIcYlYF-5" value="&lt;div&gt;&lt;br&gt;&lt;/div&gt;&lt;div&gt;&lt;br&gt;&lt;/div&gt;&lt;div&gt;&lt;br&gt;&lt;/div&gt;&lt;div&gt;&lt;br&gt;&lt;/div&gt;&lt;div&gt;&lt;br&gt;&lt;/div&gt;&lt;div&gt;&lt;br&gt;&lt;/div&gt;&lt;div&gt;&lt;br&gt;&lt;/div&gt;&lt;div&gt;&lt;br&gt;&lt;/div&gt;&lt;div&gt;&lt;br&gt;&lt;/div&gt;&lt;div&gt;&lt;br&gt;&lt;/div&gt;&lt;div&gt;&lt;br&gt;&lt;/div&gt;&lt;div&gt;&lt;br&gt;&lt;/div&gt;&lt;div&gt;&lt;br&gt;&lt;/div&gt;&lt;div&gt;&lt;br&gt;&lt;/div&gt;&lt;b&gt;Plugin 1&lt;/b&gt;" style="rounded=0;whiteSpace=wrap;html=1;" vertex="1" parent="1">
          <mxGeometry x="60" y="100" width="220" height="230" as="geometry" />
        </mxCell>
        <mxCell id="cu5lOc34p12UprIcYlYF-6" value="&lt;b&gt;Plugin 2&lt;/b&gt;" style="rounded=0;whiteSpace=wrap;html=1;" vertex="1" parent="1">
          <mxGeometry x="60" y="360" width="220" height="40" as="geometry" />
        </mxCell>
        <mxCell id="cu5lOc34p12UprIcYlYF-7" value="&lt;b&gt;Plugin N&lt;/b&gt;" style="rounded=0;whiteSpace=wrap;html=1;" vertex="1" parent="1">
          <mxGeometry x="60" y="430" width="220" height="40" as="geometry" />
        </mxCell>
        <mxCell id="cu5lOc34p12UprIcYlYF-9" value="" style="endArrow=none;dashed=1;html=1;dashPattern=1 3;strokeWidth=2;rounded=0;entryX=0.5;entryY=1;entryDx=0;entryDy=0;" edge="1" parent="1" target="cu5lOc34p12UprIcYlYF-6">
          <mxGeometry width="50" height="50" relative="1" as="geometry">
            <mxPoint x="170" y="430" as="sourcePoint" />
            <mxPoint x="450" y="300" as="targetPoint" />
          </mxGeometry>
        </mxCell>
        <mxCell id="cu5lOc34p12UprIcYlYF-2" value="&lt;b&gt;Group function&lt;/b&gt;" style="rounded=1;whiteSpace=wrap;html=1;fillColor=#dae8fc;strokeColor=#6c8ebf;" vertex="1" parent="1">
          <mxGeometry x="100" y="120" width="140" height="40" as="geometry" />
        </mxCell>
        <mxCell id="cu5lOc34p12UprIcYlYF-10" value="&lt;b&gt;License function&lt;/b&gt;" style="rounded=1;whiteSpace=wrap;html=1;fillColor=#dae8fc;strokeColor=#6c8ebf;" vertex="1" parent="1">
          <mxGeometry x="100" y="240" width="140" height="40" as="geometry" />
        </mxCell>
        <mxCell id="cu5lOc34p12UprIcYlYF-12" value="&lt;b&gt;User function&lt;/b&gt;" style="rounded=1;whiteSpace=wrap;html=1;fillColor=#dae8fc;strokeColor=#6c8ebf;" vertex="1" parent="1">
          <mxGeometry x="100" y="180" width="140" height="40" as="geometry" />
        </mxCell>
        <object placeholders="1" c4Name="MAC Middle Tier" label="&lt;font style=&quot;font-size: 14px&quot;&gt;&lt;b&gt;&lt;div style=&quot;text-align: right&quot;&gt;%c4Name%&lt;/div&gt;&lt;/b&gt;&lt;/font&gt;" id="cu5lOc34p12UprIcYlYF-13">
          <mxCell style="rounded=1;fontSize=11;whiteSpace=wrap;html=1;dashed=1;arcSize=20;fillColor=none;strokeColor=#666666;fontColor=#333333;labelBackgroundColor=none;align=left;verticalAlign=bottom;labelBorderColor=none;spacingTop=0;spacing=10;dashPattern=8 4;metaEdit=1;rotatable=0;perimeter=rectanglePerimeter;noLabel=0;labelPadding=0;allowArrows=0;connectable=0;expand=0;recursiveResize=0;editable=1;pointerEvents=0;absoluteArcSize=1;points=[[0.25,0,0],[0.5,0,0],[0.75,0,0],[1,0.25,0],[1,0.5,0],[1,0.75,0],[0.75,1,0],[0.5,1,0],[0.25,1,0],[0,0.75,0],[0,0.5,0],[0,0.25,0]];" vertex="1" parent="1">
            <mxGeometry x="320" y="80" width="440" height="520" as="geometry" />
          </mxCell>
        </object>
        <mxCell id="cu5lOc34p12UprIcYlYF-34" style="edgeStyle=orthogonalEdgeStyle;rounded=0;orthogonalLoop=1;jettySize=auto;html=1;exitX=0.5;exitY=1;exitDx=0;exitDy=0;entryX=0.5;entryY=0;entryDx=0;entryDy=0;" edge="1" parent="1" source="cu5lOc34p12UprIcYlYF-14" target="cu5lOc34p12UprIcYlYF-26">
          <mxGeometry relative="1" as="geometry" />
        </mxCell>
        <mxCell id="cu5lOc34p12UprIcYlYF-14" value="&lt;div&gt;&lt;br&gt;&lt;/div&gt;&lt;div&gt;&lt;br&gt;&lt;/div&gt;&lt;div&gt;&lt;br&gt;&lt;/div&gt;&lt;div&gt;&lt;br&gt;&lt;/div&gt;&lt;div&gt;&lt;br&gt;&lt;/div&gt;&lt;div&gt;&lt;br&gt;&lt;/div&gt;&lt;div&gt;&lt;br&gt;&lt;/div&gt;&lt;div&gt;&lt;br&gt;&lt;/div&gt;&lt;div&gt;&lt;br&gt;&lt;/div&gt;&lt;div&gt;&lt;br&gt;&lt;/div&gt;&lt;div&gt;&lt;br&gt;&lt;/div&gt;&lt;div&gt;&lt;br&gt;&lt;/div&gt;&lt;div&gt;&lt;br&gt;&lt;/div&gt;&lt;div&gt;&lt;br&gt;&lt;/div&gt;&lt;b&gt;Agent Controller&lt;/b&gt;" style="rounded=0;whiteSpace=wrap;html=1;" vertex="1" parent="1">
          <mxGeometry x="430" y="100" width="220" height="230" as="geometry" />
        </mxCell>
        <mxCell id="cu5lOc34p12UprIcYlYF-15" value="&lt;b&gt;Group API&lt;/b&gt;" style="rounded=1;whiteSpace=wrap;html=1;fillColor=#dae8fc;strokeColor=#6c8ebf;" vertex="1" parent="1">
          <mxGeometry x="470" y="120" width="140" height="40" as="geometry" />
        </mxCell>
        <mxCell id="cu5lOc34p12UprIcYlYF-16" value="&lt;b&gt;License API&lt;/b&gt;" style="rounded=1;whiteSpace=wrap;html=1;fillColor=#dae8fc;strokeColor=#6c8ebf;" vertex="1" parent="1">
          <mxGeometry x="470" y="240" width="140" height="40" as="geometry" />
        </mxCell>
        <mxCell id="cu5lOc34p12UprIcYlYF-17" value="&lt;b&gt;User API&lt;/b&gt;" style="rounded=1;whiteSpace=wrap;html=1;fillColor=#dae8fc;strokeColor=#6c8ebf;" vertex="1" parent="1">
          <mxGeometry x="470" y="180" width="140" height="40" as="geometry" />
        </mxCell>
        <mxCell id="cu5lOc34p12UprIcYlYF-18" value="&lt;b&gt;Option 1 or 2&lt;/b&gt;" style="edgeStyle=orthogonalEdgeStyle;rounded=0;orthogonalLoop=1;jettySize=auto;html=1;entryX=0;entryY=0.5;entryDx=0;entryDy=0;" edge="1" parent="1" source="cu5lOc34p12UprIcYlYF-2" target="cu5lOc34p12UprIcYlYF-15">
          <mxGeometry relative="1" as="geometry" />
        </mxCell>
        <mxCell id="cu5lOc34p12UprIcYlYF-20" value="&lt;b&gt;Option 1 or 2&lt;/b&gt;" style="edgeStyle=orthogonalEdgeStyle;rounded=0;orthogonalLoop=1;jettySize=auto;html=1;entryX=0;entryY=0.5;entryDx=0;entryDy=0;" edge="1" parent="1" source="cu5lOc34p12UprIcYlYF-10" target="cu5lOc34p12UprIcYlYF-16">
          <mxGeometry relative="1" as="geometry" />
        </mxCell>
        <mxCell id="cu5lOc34p12UprIcYlYF-19" value="&lt;b&gt;Option 1 or 2&lt;/b&gt;" style="edgeStyle=orthogonalEdgeStyle;rounded=0;orthogonalLoop=1;jettySize=auto;html=1;" edge="1" parent="1" source="cu5lOc34p12UprIcYlYF-12" target="cu5lOc34p12UprIcYlYF-17">
          <mxGeometry relative="1" as="geometry" />
        </mxCell>
        <mxCell id="cu5lOc34p12UprIcYlYF-24" value="" style="edgeStyle=orthogonalEdgeStyle;rounded=0;orthogonalLoop=1;jettySize=auto;html=1;" edge="1" parent="1" source="cu5lOc34p12UprIcYlYF-21" target="cu5lOc34p12UprIcYlYF-23">
          <mxGeometry relative="1" as="geometry" />
        </mxCell>
        <mxCell id="cu5lOc34p12UprIcYlYF-21" value="&lt;div&gt;&lt;b style=&quot;background-color: transparent; color: light-dark(rgb(0, 0, 0), rgb(255, 255, 255));&quot;&gt;Entity Controllers&lt;/b&gt;&lt;/div&gt;" style="rounded=0;whiteSpace=wrap;html=1;fillColor=#dae8fc;strokeColor=#6c8ebf;" vertex="1" parent="1">
          <mxGeometry x="440" y="430" width="80" height="50" as="geometry" />
        </mxCell>
        <mxCell id="cu5lOc34p12UprIcYlYF-25" value="" style="edgeStyle=orthogonalEdgeStyle;rounded=0;orthogonalLoop=1;jettySize=auto;html=1;" edge="1" parent="1" source="cu5lOc34p12UprIcYlYF-22" target="cu5lOc34p12UprIcYlYF-23">
          <mxGeometry relative="1" as="geometry" />
        </mxCell>
        <mxCell id="cu5lOc34p12UprIcYlYF-22" value="&lt;div&gt;&lt;b style=&quot;background-color: transparent; color: light-dark(rgb(0, 0, 0), rgb(255, 255, 255));&quot;&gt;Transpiler&lt;/b&gt;&lt;/div&gt;" style="rounded=0;whiteSpace=wrap;html=1;fillColor=#dae8fc;strokeColor=#6c8ebf;" vertex="1" parent="1">
          <mxGeometry x="560" y="430" width="80" height="50" as="geometry" />
        </mxCell>
        <mxCell id="cu5lOc34p12UprIcYlYF-23" value="&lt;div&gt;&lt;b style=&quot;background-color: transparent; color: light-dark(rgb(0, 0, 0), rgb(255, 255, 255));&quot;&gt;1P API Services&lt;/b&gt;&lt;/div&gt;" style="rounded=0;whiteSpace=wrap;html=1;fillColor=#dae8fc;strokeColor=#6c8ebf;" vertex="1" parent="1">
          <mxGeometry x="495" y="530" width="90" height="50" as="geometry" />
        </mxCell>
        <mxCell id="cu5lOc34p12UprIcYlYF-31" value="&lt;b&gt;Option 2&lt;/b&gt;" style="edgeStyle=orthogonalEdgeStyle;rounded=0;orthogonalLoop=1;jettySize=auto;html=1;exitX=1;exitY=0.5;exitDx=0;exitDy=0;" edge="1" parent="1" source="cu5lOc34p12UprIcYlYF-26">
          <mxGeometry x="0.2547" relative="1" as="geometry">
            <mxPoint x="600" y="430" as="targetPoint" />
            <mxPoint as="offset" />
          </mxGeometry>
        </mxCell>
        <mxCell id="cu5lOc34p12UprIcYlYF-33" value="&lt;b&gt;Option 1&lt;/b&gt;" style="edgeStyle=orthogonalEdgeStyle;rounded=0;orthogonalLoop=1;jettySize=auto;html=1;exitX=0;exitY=0.5;exitDx=0;exitDy=0;" edge="1" parent="1">
          <mxGeometry x="0.215" y="-1" relative="1" as="geometry">
            <mxPoint x="480" y="431" as="targetPoint" />
            <mxPoint x="510" y="381" as="sourcePoint" />
            <Array as="points">
              <mxPoint x="481" y="381" />
            </Array>
            <mxPoint as="offset" />
          </mxGeometry>
        </mxCell>
        <mxCell id="cu5lOc34p12UprIcYlYF-26" value="&lt;b&gt;Options&lt;/b&gt;" style="rhombus;whiteSpace=wrap;html=1;fillColor=#dae8fc;strokeColor=#6c8ebf;" vertex="1" parent="1">
          <mxGeometry x="510" y="350" width="60" height="60" as="geometry" />
        </mxCell>
        <mxCell id="cu5lOc34p12UprIcYlYF-38" value="&lt;b&gt;&lt;font style=&quot;font-size: 14px;&quot;&gt;Parameter extraction&lt;/font&gt;&lt;/b&gt;&lt;div&gt;&lt;b&gt;&lt;font style=&quot;font-size: 14px;&quot;&gt;Option 1 [Suitable for new entities]&lt;/font&gt;&lt;/b&gt;&lt;div&gt;&lt;span style=&quot;font-size: 14px;&quot;&gt;GET /Groups?entity=group&amp;amp;predefinedFilter=SecurityGroup&lt;/span&gt;&lt;span style=&quot;font-size: 14px;&quot;&gt;&amp;amp;nameFilter=Test&lt;/span&gt;&lt;/div&gt;&lt;div&gt;&lt;b style=&quot;font-size: 14px; background-color: transparent; color: light-dark(rgb(0, 0, 0), rgb(255, 255, 255));&quot;&gt;Option 2 [Suitable for existing entities]&lt;/b&gt;&lt;/div&gt;&lt;div&gt;&lt;div&gt;&lt;font style=&quot;font-size: 14px;&quot;&gt;GET /Groups?odsl=select_group_command(entity=group, predefinedFilter=SecurityGroup, nameFilter=Test)&lt;/font&gt;&lt;/div&gt;&lt;/div&gt;&lt;/div&gt;" style="strokeWidth=1;shadow=0;dashed=1;align=center;html=1;shape=mxgraph.mockup.text.textBox;align=left;fontSize=17;spacingLeft=4;spacingTop=-3;whiteSpace=wrap;mainText=;strokeColor=none;dashPattern=8 8;fillColor=#dae8fc;" vertex="1" parent="1">
          <mxGeometry x="40" y="631" width="720" height="110" as="geometry" />
        </mxCell>
      </root>
    </mxGraphModel>
  </diagram>
</mxfile>
